<svg width="20" height="22" viewBox="0 0 20 22" fill="none" xmlns="http://www.w3.org/2000/svg">
<path id="Vector" d="M8.50352 1.44121L9.49448 0.34737C9.91407 -0.11579 10.5926 -0.11579 11.0077 0.34737L19.6853 9.92097C20.1049 10.3841 20.1049 11.1331 19.6853 11.5913L11.0077 21.1698C10.5881 21.633 9.90961 21.633 9.49448 21.1698L8.50352 20.076C8.07946 19.6079 8.08838 18.8442 8.52137 18.386L13.9002 12.7295H1.07131C0.477625 12.7295 0 12.2023 0 11.547V9.97025C0 9.31493 0.477625 8.78771 1.07131 8.78771H13.9002L8.52137 3.13125C8.08392 2.67302 8.07499 1.9093 8.50352 1.44121Z" fill="#D9D9D9"/>
</svg>
